<?xml version="1.0" encoding="utf-8"?>
<!-- Generator: Adobe Illustrator 25.2.0, SVG Export Plug-In . SVG Version: 6.00 Build 0)  -->
<svg version="1.1" xmlns="http://www.w3.org/2000/svg" xmlns:xlink="http://www.w3.org/1999/xlink" x="0px" y="0px"
	 viewBox="0 0 500.5 508.8" style="enable-background:new 0 0 500.5 508.8;" xml:space="preserve">
<style type="text/css">
	.st0{fill:#FFFFFF;}
</style>
<g id="BG">
</g>
<g id="objects">
	<path class="st0" d="M356.43,221.85V351.2h33.44V221.85H356.43z M239.89,68.85h40.63c12.92,1.16,23.13,12.44,23.13,26.31
		c0,13.34-9.45,24.31-21.66,26.16H246.2v29.44h32.19c29.33,0,53.2-24.95,53.2-55.61c0-13.33-4.65-26.49-13.23-36.71
		c-8.19-9.76-20.17-16.99-33-18.46c-3.7-0.42-7.39-0.57-11.1-0.57h-67.83v167.69h33.46V68.85z M239.89,254.62h69.24v-32.95h-102.7
		v70.19h33.46V254.62z M134.36,39.4h-28.85c0,0-39.49,125.84-59.05,167.69h147.98L134.36,39.4z M121.65,102.28l26.84,75.12H94.55
		C104.86,150.55,115.57,120.66,121.65,102.28z M79.92,251.11h40.63c12.92,1.16,23.13,12.44,23.13,26.31
		c0,13.34-9.45,24.31-21.66,26.16H86.24v29.44h32.19c29.33,0,53.2-24.95,53.2-55.61c0-13.33-4.64-26.49-13.23-36.71
		c-8.19-9.76-20.17-17-33-18.46c-3.7-0.42-7.39-0.57-11.11-0.57H46.46v167.69h33.46V251.11z M454.04,207.09L393.96,39.4h-28.85
		c0,0-39.48,125.84-59.05,167.69H454.04z M381.25,102.28l26.84,75.12h-53.94C364.46,150.55,375.17,120.66,381.25,102.28z
		 M97.12,338.58l28.27,50.78h33.44l-28.27-50.78H97.12z M239.89,330.84h49.72v-33H186.91v33h19.51v58.51h107.64v-33.44h-74.19
		V330.84z M346.4,389.36h107.64v-33.44H346.4V389.36z M496.99,0H3.52C1.57,0,0,1.57,0,3.52v501.76c0,1.93,1.57,3.52,3.52,3.52
		h493.47c1.94,0,3.52-1.59,3.52-3.52V3.52C500.5,1.57,498.93,0,496.99,0z M93.21,490.64h-6.89v-18.91l0.29-17.35l-6.83,36.03h-6.14
		l-7.12-36.03l0.29,17.35v18.91h-6.83v-50.73h9.6l7.21,37.07l6.77-37.07h9.66V490.64z M125,476.46c0,4.96-0.88,8.66-2.65,11.1
		s-4.6,3.66-8.49,3.66c-3.89,0-6.74-1.22-8.56-3.67c-1.82-2.45-2.72-6.14-2.72-11.08v-23.2c0-9.3,3.79-13.95,11.38-13.95
		c3.92,0,6.74,1.18,8.46,3.55c1.72,2.36,2.58,5.83,2.58,10.4V476.46z M153.85,487.06c-1.69,2.38-4.49,3.57-8.39,3.57h-11.13v-50.73
		h11.38c3.73,0,6.43,1.1,8.11,3.3c1.68,2.2,2.52,5.44,2.52,9.73l0.03,22.88C156.39,480.94,155.54,484.68,153.85,487.06z
		 M181.03,490.64l-1.21-9.05h-8.19l-1.1,9.05h-7.44l7.23-50.73h10.2l7.7,50.73H181.03z M242.07,490.64h-6.89v-18.91l0.29-17.35
		l-6.83,36.03h-6.14l-7.12-36.03l0.29,17.35v18.91h-6.83v-50.73h9.6l7.21,37.07l6.77-37.07h9.66V490.64z M269.42,490.64h-17.35
		v-50.73h17v6.66h-9.28v14.76h8.82v6.51h-8.82v16.14h9.63V490.64z M291.96,490.64l-5.16-15.59l-4.18,15.59h-7.46l7.81-27.21
		l-7.78-23.52h6.51l5.04,15.07l4.06-15.07h7.23l-7.67,25.97l8.27,24.76H291.96z M313.66,490.64h-7.72v-50.73h7.72V490.64z
		 M345.33,476.8c0,4.9-0.88,8.53-2.62,10.88c-1.75,2.35-4.5,3.53-8.24,3.53s-6.55-1.25-8.4-3.76c-1.85-2.51-2.78-6.12-2.78-10.82
		v-22.11c0-7.55,1.98-12.27,5.94-14.15c1.46-0.69,3.23-1.04,5.3-1.04c7.13,0,10.69,4.5,10.69,13.49v6.97h-7.47v-6.49
		c0-2.61-0.22-4.48-0.66-5.61c-0.44-1.12-1.31-1.69-2.59-1.69s-2.18,0.6-2.68,1.79c-0.5,1.19-0.75,3.02-0.75,5.48v23.69
		c0,2.73,0.24,4.68,0.72,5.85s1.35,1.76,2.62,1.76c1.27,0,2.14-0.6,2.62-1.79c0.48-1.19,0.72-3.16,0.72-5.91v-7.26h7.58V476.8z
		 M369.6,490.64l-1.21-9.05h-8.19l-1.1,9.05h-7.44l7.24-50.73h10.2l7.7,50.73H369.6z M407.67,490.64h-5.48l-11.04-31.5l0.43,13.32
		v18.19h-7.12v-50.73h6.05l10.75,30.44l-0.55-13.83v-16.6h6.95V490.64z M433.26,490.64l-1.21-9.05h-8.19l-1.1,9.05h-7.44l7.24-50.73
		h10.2l7.7,50.73H433.26z M493.47,421.73H7.03V7.03h486.44V421.73z M113.92,445.99c-1.32,0-2.24,0.55-2.77,1.66
		c-0.53,1.1-0.79,2.85-0.79,5.23v23.66c0,2.98,0.23,5.05,0.68,6.23c0.45,1.17,1.38,1.76,2.78,1.76c1.4,0,2.32-0.6,2.77-1.8
		c0.44-1.2,0.66-3.26,0.66-6.18v-23.63c0-2.4-0.23-4.16-0.68-5.26C116.12,446.55,115.24,445.99,113.92,445.99z M175.5,449.91
		l-3.11,25.48h6.63l-3.4-25.48H175.5z M147.67,447.52c-0.64-1.11-1.75-1.67-3.33-1.67h-2.28v38.79h2.54c1.42,0,2.45-0.46,3.1-1.38
		c0.64-0.92,0.97-2.61,0.97-5.07l-0.03-25.05C148.64,450.51,148.31,448.63,147.67,447.52z M364.06,449.91l-3.11,25.48h6.63
		l-3.4-25.48H364.06z M427.73,449.91l-3.11,25.48h6.63l-3.4-25.48H427.73z"/>
</g>
</svg>
